<?xml version="1.0" encoding="UTF-8"?> <svg xmlns="http://www.w3.org/2000/svg" id="a" width="888.5" height="793" viewBox="0 0 888.5 793"><path d="m748.7,274.32c-8.8-20.7-24.8-41.8-44.5-60.6-5.1-4.9-10.9-9.9-16.5-14.5.1.1.2.2.3.3-31.8-26.8-73.3-48.2-111.5-57.1-3.1-.7-6.8-1.5-10.1-2,.1,0,.3.1.4.1-45.2-9.3-101.1-6.3-146.3,8.2-26.2,8.4-48.1,20.2-65,34.9-18.9,16.4-31.1,36.1-36.3,58.5-10.5,45.5,2.3,93.6,36.2,135.3,33.8,41.6,84.5,72,142.7,85.4s117.1,8.4,165.7-14.2c48.7-22.7,81.3-60.2,91.8-105.8,5.3-22.4,2.9-45.4-6.9-68.5Zm-3.7,52.1c-9.6,41.6-39.4,75.9-84,96.6-44.6,20.8-98.7,25.4-152.3,13-34.3-7.9-66.6-22.6-93.3-42.5-20.5-15.2-37.2-32.9-49.8-52.6-10.7-16.7-18-34.3-21.7-52.2-3.8-18.5-3.6-37,.5-54.9,4.7-20.3,15.8-38.2,32.9-53.1,15.5-13.5,35.5-24.2,59.5-31.9,40.1-12.9,88.9-16,130-8.5,1.7.3,3.7.7,5.3,1.1,39.3,9.1,81.9,30.5,115.4,57.6,3.8,3.2,7.9,6.9,11.5,10.3,18.2,17.5,31.5,35.9,39.5,54.8,9.1,21.1,11.2,42,6.5,62.3Z" fill="#aeece5"></path><g id="b"><path d="m769.7,275.52c-20.6-31-49.8-58.8-86.7-82.8-66.2-43.1-153.6-69.8-228.2-69.8s-162,26.7-228.2,69.8c-36.9,24-66,51.8-86.7,82.8-23,34.5-34.6,71.8-34.6,110.9,0,79.6,36.4,154.3,102.5,210.5,66,56.1,153.7,87,247,87s181-30.9,247-87c66.1-56.2,102.5-131,102.5-210.5,0-39.1-11.6-76.4-34.6-110.9Zm-6.5,86.6c0,69.9-32,135.5-90.2,185-58.3,49.5-135.8,76.8-218.2,76.8-52.8,0-104.9-11.5-150.7-33.3-35-16.7-65.5-38.7-90.6-65.5-21.3-22.7-37.9-48-49.3-75.2-11.8-28.1-17.8-57.7-17.8-87.8,0-34.1,10.2-66.7,30.2-96.7,18.1-27.2,43.8-51.7,76.3-72.8,58.5-38.1,135.9-61.8,201.9-61.8s143.3,23.7,201.9,61.8c32.5,21.1,58.1,45.6,76.3,72.8,20,30,30.2,62.6,30.2,96.7Z" fill="#f00abe"></path></g><circle cx="116.2" cy="431.15" r="114.9" transform="translate(-270.83 208.45) rotate(-45)" fill="#181e2d" stroke="#f00abe" stroke-miterlimit="4" stroke-width="2.6"></circle><g><path d="m178.8,312.52c-.4-10.1-10.3-18.6-19.8-19.3h0l-69.8-5.2h0c-2.8-.1-6,.2-7.9,1l-10.8,4.3h0c-1.9.7-3.6,1.8-5.2,3.2-3.6,3.4-5.6,8.1-5.6,13.3v156.8c0,10.4,7.9,19.3,17.6,20l79.5,5.3h1.1c2,0,4-.4,5.9-1.1h0c.1-.1.3-.1.4-.2.3-.1.6-.3.9-.4.2-.1.4-.2.7-.4.1-.1.3-.1.4-.2h-.1c.1,0,.2-.1.2-.1-.1,0-.1.1-.1.1.1,0,.2-.1.3-.2,0,0,.1,0,.1-.1,5.8-3.4,11.9-13.9,12.3-21.1h0v-145.4h0l-.1-10.3h0Z" fill="#7e798d"></path><path d="m156.8,299.22l-79.5-5.3h-1c-3.7,0-7.2,1.4-9.9,3.9-3.3,3-5.1,7.4-5.1,12.2v156.8c0,9.5,7.2,17.8,16.1,18.4l79.5,5.3c4.1.3,7.9-1.1,10.9-3.9,3.3-3,5.1-7.4,5.1-12.2v-156.8c0-9.6-7.3-17.8-16.1-18.4Z" fill="#fff"></path><path d="m68,464.02v-147.9c0-15.2,6.8-14.9,15.1-14.4l68,4.5c9.2,0,15.1,7.5,15.1,16.4v148l-98.2-6.6Z" fill="#181e2d"></path><path d="m122.2,480.12h-.2l-14.6-1c-1.3-.1-2.4-1.2-2.3-2.6.1-1.3,1.2-2.3,2.6-2.3l14.6,1c1.3.1,2.4,1.2,2.3,2.6,0,1.3-1.1,2.3-2.4,2.3Z" fill="#181e2d"></path><g><path d="m114.9,396.32c18.7,0,33.9-15.2,33.9-33.9s-15.2-33.9-33.9-33.9-33.9,15.2-33.9,33.9c0,18.7,15.2,33.9,33.9,33.9" fill="#7e798d"></path><g><g><path d="m135,389.92v-17.8h0c-.1-.6-.6-1.1-1.2-1.2l-7.6-.6c-.4,0-.8.1-1,.4-.3.3-.4.6-.4,1v64.4l10.3.6v-46.8h-.1Z" fill="#c6c3cd"></path><path d="m119.7,393.62v-35.6c0-.7-.5-1.3-1.3-1.4l-7.6-.6c-.4,0-.8.1-1,.4-.3.3-.4.6-.4,1v77.6l10.3.6v-42Z" fill="#00d7d4"></path><path d="m104.4,393.22v-30.6c0-.7-.6-1.3-1.3-1.4l-7.6-.6c-.4,0-.8.1-1,.4-.3.3-.4.6-.4,1v72.2l10.3.6v-41.6h0Z" fill="#f00abe"></path></g><path d="m146.9,444.02q-.1,0,0,0l-59.8-3.7c-.6,0-1-.5-1-1.1s.5-1,1.1-1l59.8,3.7c.6,0,1,.5,1,1.1-.1.6-.6,1-1.1,1Z" fill="#7e798d"></path></g><path d="m156.3,404.82l-13.3-18c5.7-6.5,9.1-15.1,9.1-24.4,0-20.5-16.7-37.2-37.2-37.2s-37.2,16.7-37.2,37.2,16.7,37.2,37.2,37.2c6.4,0,12.4-1.6,17.7-4.5l13,17.5c1.3,1.8,3.3,2.7,5.4,2.7,1.4,0,2.8-.4,4-1.3,2.9-2.1,3.5-6.3,1.3-9.2Zm-27.7-15.1c-4.1,2.1-8.8,3.2-13.7,3.2-16.8,0-30.6-13.7-30.6-30.6s13.7-30.6,30.6-30.6,30.6,13.7,30.6,30.6c0,7.1-2.4,13.6-6.5,18.8-2.8,3.7-6.4,6.6-10.4,8.6Z" fill="#fff"></path></g></g><circle cx="459.07" cy="641.4" r="150.1" fill="#181e2d" stroke="#f00abe" stroke-miterlimit="10" stroke-width="3"></circle><g><path d="m585.8,545.12l-129.4-9c-5.2-.4-10,.7-14.2,2.8h0l-20.1,10h0c-8.7,4.3-14.6,13.3-14.6,24v43h0v85.2c0,15.8,12.8,29.6,28.7,30.7l129.4,9c5.1.4,10-.7,14.1-2.7h0l19.6-9.8h0c9-4.2,15.2-13.3,15.2-24.3v-85.2h0v-43c0-15.8-12.8-29.6-28.7-30.7Z" fill="#7e798d"></path><path d="m436,548.72c-.6,0-1.2-.1-1.9-.1-13.5,0-24.1,10.6-24.1,24.2v128.2c0,14.5,11.8,27.2,26.4,28.2l129.4,9c.6,0,1.2.1,1.9.1,13.5,0,24.1-10.6,24.1-24.2v-87.8h0v-40.3c0-14.5-11.8-27.2-26.4-28.2l-129.4-9.1Z" fill="#fff"></path><path d="m470.1,673.42c11.5-.5,22.1-8.4,26.9-12.4l-16.2-16.7c-.6-.6-.9-1.4-.9-2.2s.3-1.6.9-2.1l18.8-16.8c1.1-1,3.1-.9,4.2.3l17.6,18.7c1.2,1.2,1.2,3.1,0,4.2l-15.8,15.1c4.2,4,15.6,13.9,26.2,16.2v-42.3l-30.8-30-30.9,25.8v42.2Zm44.9-29.6l-13.4-14.3-14.5,13,14.1,14.5,13.8-13.2Zm-50,34.5c-.6-.6-.9-1.4-.9-2.2v-46.6c0-.8.4-1.6,1-2.1l33.8-28.4c1.1-.9,2.9-.8,4,.3l33.8,32.9c.6.6,1,1.4,1,2.3v46.8c0,1.6-1.3,2.9-3,2.8-13.7-1-28.3-13.8-33.3-18.7-5.7,5-19.2,15-34.2,13.9-.9-.1-1.7-.4-2.2-1" fill="#181e2d"></path></g><circle cx="525.89" cy="131.41" r="96.1" transform="translate(61.11 410.35) rotate(-45)" fill="#c6c3cd" stroke="#181e2d" stroke-miterlimit="4" stroke-width="5"></circle><g><rect x="519.7" y="148.52" width="12.4" height="28" fill="#7e798d"></rect><path d="m591.8,149.62h-131.8c7.9-17.7,13.8-35.5,21.7-53.2h88.4c8,17.7,13.8,35.5,21.7,53.2Z" fill="#181e2d" stroke="#fff" stroke-linecap="round" stroke-linejoin="round" stroke-width="2.6"></path><path d="m540.2,97.02c2.6,17.5,5.2,34.2,7.8,51.8m-71.8-37.6h99.2m-63.2-14.2c-3.4,23.6-3.8,26.5-7.5,51.9m-35-21h113.1" fill="none" stroke="#fff" stroke-linecap="round" stroke-linejoin="round" stroke-width="2.6"></path><path d="m542.4,177.72h-33c-1.4,0-2.5-1.1-2.5-2.5s1.1-2.5,2.5-2.5h33c1.4,0,2.5,1.1,2.5,2.5s-1.1,2.5-2.5,2.5Z" fill="#181e2d"></path></g><path d="m490.7,34.42c-.3-.1-.6-.2-.7-.5-.4-.5-.2-1.2.3-1.5l17.9-12.1c.5-.3,1.2-.2,1.6.3.4.5.2,1.2-.3,1.5l-17.9,12.1c-.3.2-.6.2-.9.2" fill="#f00abe" stroke="#f00abe" stroke-miterlimit="10"></path><path d="m429.3,75.92c-.3-.1-.6-.2-.7-.5-.4-.5-.2-1.2.3-1.5l18.1-12.2c.5-.3,1.2-.2,1.6.3s.2,1.2-.3,1.5l-18.2,12.3c-.2.1-.5.2-.8.1" fill="#f00abe" stroke="#f00abe" stroke-miterlimit="10"></path><path d="m453.6,27.92c-.3-.1-.6-.2-.7-.5l-12.7-17.5c-.4-.5-.2-1.2.3-1.5s1.2-.2,1.6.3l12.7,17.5c.4.5.2,1.2-.3,1.5-.3.2-.6.2-.9.2" fill="#f00abe" stroke="#f00abe" stroke-miterlimit="10"></path><path d="m442.8,44.52l-22.6-4c-.6-.1-1-.7-.9-1.3.1-.6.7-1,1.3-.9l22.6,4c.6.1,1,.7.9,1.3s-.7,1-1.3.9" fill="#f00abe" stroke="#f00abe" stroke-miterlimit="10"></path><path d="m473.3,24.62c-.6-.1-1-.7-.9-1.3l3.9-21.9c.1-.6.7-1,1.3-.9s1,.7.9,1.3l-3.9,21.9c-.1.6-.7,1-1.3.9" fill="#f00abe" stroke="#f00abe" stroke-miterlimit="10"></path><path d="m460.8,95.52c-.6-.1-1-.7-.9-1.3l3.9-21.9c.1-.6.7-1,1.3-.9.6.1,1,.7.9,1.3l-3.9,21.9c-.1.6-.7,1-1.3.9" fill="#f00abe" stroke="#f00abe" stroke-miterlimit="10"></path><path d="m497.1,87.92c.3.1.6,0,.8-.2.5-.3.6-1,.3-1.5l-12.8-17.7c-.4-.5-1.1-.6-1.6-.3-.5.3-.6,1-.3,1.5l12.8,17.7c.2.3.5.4.8.5" fill="#f00abe" stroke="#f00abe" stroke-miterlimit="10"></path><path d="m495.1,53.72l22.6,4c.6.1,1.2-.3,1.3-.9s-.3-1.2-.9-1.3l-22.6-4c-.6-.1-1.2.3-1.3.9s.3,1.2.9,1.3" fill="#f00abe" stroke="#f00abe" stroke-miterlimit="10"></path><path d="m466.1,65.22c-9.5-1.7-15.9-10.8-14.2-20.2,1.7-9.5,10.8-15.8,20.2-14.2,9.5,1.7,15.9,10.8,14.2,20.2-1.6,9.5-10.7,15.9-20.2,14.2Z" fill="#f00abe" stroke="#181e2d" stroke-miterlimit="10" stroke-width="2.78"></path><path d="m512.2,97.02c-3.4,23.6-4.8,26.5-8.5,51.9" fill="none" stroke="#fff" stroke-linecap="round" stroke-linejoin="round" stroke-width="2.6"></path><path d="m549.2,148.82c-3.7-25.3-5.5-28.3-8.9-51.9" fill="none" stroke="#fff" stroke-linecap="round" stroke-linejoin="round" stroke-width="2.6"></path><path d="m462,148.62c9.1-22,13.2-36,19.7-51.6" fill="none" stroke="#fff" stroke-linecap="round" stroke-linejoin="round" stroke-width="2.6"></path><path d="m589.7,148.62c-9.1-22-13.2-36-19.7-51.6" fill="none" stroke="#fff" stroke-linecap="round" stroke-linejoin="round" stroke-width="2.6"></path><path d="m695.7,292.22c55.2,0,100-44.8,100-100.1s-44.8-100.1-100-100.1-100,44.8-100,100.1,44.8,100.1,100,100.1" fill="#c6c3cd" stroke="#181e2d" stroke-width="5"></path><g><path d="m697.9,177.52c6.4,0,11.5-5.2,11.5-11.5s-5.2-11.5-11.5-11.5-11.5,5.2-11.5,11.5,5.1,11.5,11.5,11.5Zm-1.9-12.4c.7-1,7.7-7.2,7.7-7.2,0,0-3.4,8.8-4.1,9.8-.7,1-2.1,1.3-3.1.6-.9-.8-1.2-2.2-.5-3.2Z" fill="#fff"></path><path d="m664.3,220.32v-22.3c0-3,3-3,3-3h61.2c3,0,3,3,3,3v22h0v62.9c2.5-1,5-2.1,7.5-3.3v-126.6c0-7.2-5.9-13.1-13.1-13.1h-55.9c-7.2,0-13.1,5.9-13.1,13.1v128.6c2.4,1.1,4.9,2,7.5,2.9l-.1-64.2h0Zm33.6-67.7c7.4,0,13.4,6,13.4,13.4s-6,13.4-13.4,13.4-13.4-6-13.4-13.4c0-7.4,6-13.4,13.4-13.4Z" fill="#fff"></path><path d="m674.8,216.52c0-.3.3-.6.6-.6h.2c.3,0,.6.3.6.6,0,2.6,3,4.7,6.7,4.7s6.7-2.1,6.7-4.7c0-.3.3-.6.6-.6h.2c.3,0,.6.3.6.6,0,2.6,3,4.7,6.7,4.7s6.7-2.1,6.7-4.7c0-.3.3-.6.6-.6h.2c.3,0,.6.3.6.6,0,2.6,3,4.7,6.7,4.7s6.7-2.1,6.7-4.7c0-.3.3-.6.6-.6h.2c.3,0,.6.3.6.6,0,2.6,3,4.7,6.7,4.7,1.7,0,3.2-.4,4.4-1.1v-22s0-3-3-3h-61.2s-3,0-3,3v22.2c1.1.5,2.4.8,3.8.8,3.5,0,6.5-2.1,6.5-4.6Z" fill="#aeece5"></path><polygon points="731.4 220.02 731.4 282.92 731.5 282.92 731.5 220.02 731.4 220.02" fill="#181e2d"></polygon><path d="m727.1,221.12c-3.7,0-6.7-2.1-6.7-4.7,0-.3-.3-.6-.6-.6h-.2c-.3,0-.6.3-.6.6,0,2.6-3,4.7-6.7,4.7s-6.7-2.1-6.7-4.7c0-.3-.3-.6-.6-.6h-.2c-.3,0-.6.3-.6.6,0,2.6-3,4.7-6.7,4.7s-6.7-2.1-6.7-4.7c0-.3-.3-.6-.6-.6h-.2c-.3,0-.6.3-.6.6,0,2.6-3,4.7-6.7,4.7s-6.7-2.1-6.7-4.7c0-.3-.3-.6-.6-.6h-.2c-.3,0-.6.3-.6.6,0,2.6-3,4.7-6.7,4.7-1.4,0-2.7-.3-3.8-.8v64.2c9.9,3.4,20.4,5.2,31.4,5.2,12.6,0,24.6-2.4,35.7-6.8v-62.9c-.9.7-2.5,1.1-4.1,1.1Z" fill="#181e2d"></path><path d="m697.9,179.42c7.4,0,13.4-6,13.4-13.4s-6-13.4-13.4-13.4-13.4,6-13.4,13.4c0,7.4,6,13.4,13.4,13.4Zm0-24.9c6.4,0,11.5,5.2,11.5,11.5s-5.2,11.5-11.5,11.5-11.5-5.2-11.5-11.5,5.1-11.5,11.5-11.5Z" fill="#181e2d"></path><path d="m696.6,168.22c1,.7,2.4.5,3.1-.6.7-1,4.1-9.8,4.1-9.8,0,0-7,6.2-7.7,7.2-.8,1.1-.5,2.5.5,3.2Z" fill="#f00abe"></path></g><path d="m631.4,261.52c34.2,33.8,86.5,34.2,121.2,6.5" fill="none" stroke="#c6c3cd" stroke-width="5"></path><path d="m777.2,439.02c54.7,0,99.1-44.4,99.1-99.1s-44.4-99.1-99.1-99.1-99.1,44.4-99.1,99.1,44.4,99.1,99.1,99.1" fill="#c6c3cd" stroke="#181e2d" stroke-width="5"></path><path d="m824.7,284.32v19.6c0,3.3.5,8,3,11.5.1.2,3.1,4.7,8.6,5.5,4.3.6,8.8-1.2,13.5-5.3,5.8-5.1,11.9-5.9,15.9-5.6,6.3.4,11.6,3.4,14.1,6.3,6.6,7.5,7.6,16.2,2.9,25.8-5.7,11.7-22.4,11.3-28.7,11.2h-35.6c-.7,0-1.2.5-1.2,1.2s.5,1.2,1.2,1.2h35.6c6.1.1,24.6.5,30.9-12.5,2.1-4.2,3.1-8.4,3.1-12.4,0-5.8-2.1-11.2-6.4-16-2.8-3.2-8.8-6.6-15.8-7.1-6.4-.4-12.5,1.7-17.6,6.2-4.1,3.6-8,5.2-11.6,4.7-4.4-.6-6.9-4.4-7-4.5-2.2-3-2.6-7.1-2.6-10.1v-19.7h-2.3Z" fill="#f00abe" stroke="#f00abe" stroke-miterlimit="10"></path><path d="m836.7,275.92h0v-1.1c0-2.8-2.3-2.9-3.6-2.9h-.8v-7.7h-5v7.7h-2.7v-7.7h-5v7.7h-.8c-2.8,0-3.6,1.6-3.6,2.9v1.1h0v8.3c0,4.9,4.9,8.8,10.8,8.8s10.8-4,10.8-8.8v-8.3h-.1Z" fill="#181e2d"></path><path d="m812.2,225.82c-3.4,0-9.8,2-9.8,9.8v28.7c0,3.4,2,9.8,9.8,9.8h28.7c3.4,0,9.8-2,9.8-9.8v-28.7c0-3.4-2-9.8-9.8-9.8h-28.7Z" fill="#f00abe" stroke="#181e2d" stroke-miterlimit="10" stroke-width="3.21"></path><polygon points="835.7 248.62 828.3 248.62 835.2 236.52 817.3 251.22 824.7 251.22 817.8 263.32 835.7 248.62" fill="#fff"></polygon><path d="m746.6,385.02h2.3v8.7c0,1.5-1.2,2.8-2.8,2.8h-8.7c-1.5,0-2.8-1.2-2.8-2.8v-11.9c2.2,2.5,5.7,3.2,12,3.2" fill="#181e2d"></path><path d="m807.5,385.02h-2.3v8.7c0,1.5,1.2,2.8,2.8,2.8h8.7c1.5,0,2.8-1.2,2.8-2.8v-11.9c-2.2,2.5-5.7,3.2-12,3.2" fill="#181e2d"></path><path d="m730.7,326.72h5c1.6,0,2.9,1.3,2.9,2.9v1.7c0,.5.3,1.5.8,2.2,2.4-8.3,5.5-17.7,6.8-21.6,1.5-4.5,4.8-5.4,7.8-5.8.8-.1,1.7-.2,2.7-.3,5.4-.4,12.9-.6,20.7-.6,9.3,0,18.1.3,23.4.9,3,.4,6.3,1.3,7.8,5.8,1.3,3.9,4.4,13.3,6.8,21.6.5-.7.8-1.7.8-2.2v-1.7c0-1.6,1.3-2.9,2.9-2.9h5c1.6,0,2.9,1.3,2.9,2.9v1.7c0,1.6-1.3,2.9-2.9,2.9h-4c-2,0-3.3,2.1-3.9,3.2.7,2.6,1.3,5,1.7,6.8,1.3,6.4,1.9,15.5,1.9,19.4s0,10.5-1.5,13.4c-.4.8-.9,1.5-1.6,2-1.8,1.5-4.5,2-9.1,2h-60.8c-5.1,0-7.9-.6-9.6-2.5-.4-.4-.7-.9-1-1.5-1.5-3-1.5-9.5-1.5-13.4,0-2.4.2-6.7.7-11.1.2-1.7.4-3.3.6-5,.2-1.2.4-2.3.6-3.4.4-1.9,1-4.2,1.7-6.8-.6-1.1-1.8-3.2-3.9-3.2h-3.7c-1.6,0-2.9-1.3-2.9-2.9v-1.7c0-1.5,1.3-2.8,2.9-2.8" fill="#f00abe"></path><path d="m796.4,332.72h-46.5c-3.2,0-1.9-2.4-1.2-4.6.6-2.2,3.1-10.4,3.8-12.4.7-2.1,2.6-3,6.1-3.5.3,0,.5-.1.8-.1,4-.4,9.9-.7,17.8-.7,7.3,0,12.7.1,16.6.5,4.5.4,6.9,1.1,8,4s3.3,10,3.9,12.2c.6,2.1,1.8,4.3-.6,4.6h-8.7Z" fill="#fff"></path><path d="m803.7,370.92c-4.5,0-8.1-3.6-8.1-8.1s3.6-8.1,8.1-8.1,8.1,3.6,8.1,8.1c0,4.5-3.6,8.1-8.1,8.1" fill="#fff"></path><path d="m750.7,370.92c4.5,0,8.1-3.6,8.1-8.1s-3.6-8.1-8.1-8.1-8.1,3.6-8.1,8.1,3.6,8.1,8.1,8.1" fill="#fff"></path><path d="m313.2,86.82h0m7.5-4.9l1.6.6-9.1,4.4s0-.1,0,0h0c9.6,49.1-22.4,64.7-32.2,68.1.1-.1.2-.3.4-.4,10.6-9.8,20.2-27.2,14.3-57.2l-10,6.3h-.1c2.6-8,4.6-17.4,5.7-28.4,10.8,1.9,20.6,4.1,29.4,6.6" fill="#f00abe"></path><path d="m247.9,95.42h0m18.2-9.9l.6-3.7-18.8,13.7c0,.1.2.2,0,0h0c-87.9-70.2-154.2-22-171.8-6,.4-.1.8-.2,1.2-.3,31.3-11.2,76.7-12.4,130.2,30.4l-23.6,13.4-.2.1c18.9,3,40,8.7,63.3,17.9,8.2-23.5,14.5-45.4,19.1-65.5" fill="#f00abe"></path></svg> 